<svg width="95" height="35" viewBox="0 0 95 35" fill="none" xmlns="http://www.w3.org/2000/svg">
<path d="M15.6883 34.75C17.9883 34.75 20.4883 34.35 23.2883 33.5L24.9883 33.6L28.0383 25.85H27.3883L25.4383 29.15C23.9383 30.75 22.3883 31.95 20.8883 32.75C19.3883 33.55 17.6383 33.95 15.6883 33.95C11.9883 33.95 9.13828 32.85 7.13828 30.6C5.13828 28.4 4.13828 25.4 4.13828 21.7C4.13828 16.7 5.53828 12.35 8.38828 8.55C11.2383 4.75 14.8883 2.85 19.3383 2.85C20.8883 2.85 22.4383 3.15 23.9383 3.65C25.4383 4.15 26.6383 4.75 27.4883 5.45L28.7383 12.5H29.3883L30.5383 3.7L27.9883 4.5C25.4883 2.9 22.5383 2.05 19.0883 2.05C13.8883 2.05 9.58828 3.95 6.13828 7.7C2.63828 11.45 0.938281 15.9 0.938281 21.05C0.938281 25.1 2.23828 28.4 4.93828 30.95C7.63828 33.5 11.1883 34.75 15.6883 34.75ZM43.9195 34.65C44.6195 34.65 45.4695 34.1 46.5695 32.9C47.6195 31.7 48.6695 30.1 49.7195 28.1L49.2695 27.7L45.4695 32.9L43.2695 32.6L46.8195 23.15C48.5195 18.65 49.3195 16 49.3195 15.2C49.3195 14.4 48.9695 13.6 48.2695 12.9C47.5695 12.2 46.8195 11.85 46.0695 11.85C45.0195 11.85 44.0195 12.4 43.0195 13.45C42.0695 14.45 40.7195 16.2 38.9695 18.8C37.2195 21.4 35.6695 24 34.3695 26.6L34.0195 26.55C34.3195 25.75 34.7695 24.5 35.3195 22.85C35.8195 21.2 36.3195 19.65 36.7195 18.2C37.1195 16.8 37.7195 14.75 38.5195 12.05C39.2695 9.35 39.8195 7.4 40.1695 6.1L41.6695 0.349998L34.1195 1.25L34.0195 1.85L38.0695 2.05C38.4695 2.05 38.5695 2.4 38.4195 3.05L37.2695 7.45C36.5195 10.4 35.6195 13.8 34.5695 17.6C33.5195 21.4 32.6695 24.2 32.0695 25.95C31.8695 26.6 31.5695 27.55 31.1695 28.85C30.7695 30.15 30.4195 31.25 30.1195 32.25C29.8195 33.25 29.6695 33.8 29.6195 33.9L32.1695 34.15L33.6195 29.6C35.7695 25.3 37.9695 21.55 40.1695 18.35C42.3695 15.15 43.8695 13.55 44.6695 13.55C45.2695 13.55 45.7695 13.75 46.2195 14.1C46.6695 14.5 46.8695 14.95 46.8695 15.45C46.8695 15.9 46.0695 18.4 44.4195 23C44.0695 24.1 43.5695 25.45 42.9195 27.1C42.3195 28.8 41.8195 30.1 41.4695 31.05C41.1695 32 40.9695 32.6 40.9695 32.8C40.9695 33.15 41.3695 33.55 42.0695 34C42.7695 34.45 43.4195 34.65 43.9195 34.65ZM53.0121 34.65C53.7121 34.65 54.5621 34.1 55.6621 32.9C56.7621 31.7 57.8121 30.1 58.9121 28.1L58.4621 27.7L54.5621 32.9L52.4121 32.6L62.0121 0.349998L54.5121 1.25L54.4121 1.85L58.4621 2.05C58.8621 2.05 58.9621 2.4 58.7621 3.05L50.2621 32.8C50.2121 33.15 50.5121 33.55 51.2121 34C51.9121 34.45 52.5121 34.65 53.0121 34.65ZM66.3078 34.65C69.0078 34.65 71.4578 33.2 73.6078 30.2C75.7578 27.2 76.8578 24.05 76.8578 20.65C76.8578 18.1 76.3078 16 75.2578 14.35C74.1578 12.65 72.7078 11.85 70.8078 11.85C68.2078 11.85 65.8078 13.4 63.7078 16.6C61.5578 19.75 60.5078 23 60.5078 26.35C60.5078 28.65 60.9578 30.6 61.9078 32.25C62.8078 33.85 64.3078 34.65 66.3078 34.65ZM66.0078 33.9C64.9078 33.9 64.1078 33.35 63.5578 32.35C63.0078 31.3 62.7578 29.95 62.7578 28.25C62.7578 26.35 63.0578 24.4 63.7078 22.3C64.5078 19.7 65.6078 17.45 66.9078 15.55C68.2078 13.65 69.6078 12.7 71.0578 12.7C73.3578 12.7 74.5078 14.7 74.5078 18.7C74.5078 20.85 74.2078 23 73.5078 25.15C72.7578 27.65 71.7078 29.7 70.3578 31.35C68.9578 33.05 67.5078 33.9 66.0078 33.9ZM70.4078 9.25H70.8578L81.2578 0.049999H77.8078L70.4078 9.25ZM83.8555 34.65C86.5055 34.65 89.2055 32.55 91.9055 28.25L91.4055 27.85C89.2055 31.2 87.0555 32.85 84.9055 32.85C83.6555 32.85 82.6555 32.3 81.8555 31.2C81.0555 30.1 80.6555 28.6 80.6555 26.7C80.6555 25.55 80.8055 24.3 81.2055 22.95C86.1055 21.45 89.4555 20.15 91.3055 19.1C93.1055 18.05 94.0555 16.75 94.0555 15.25C94.0555 14.3 93.6055 13.5 92.7055 12.85C91.8055 12.15 90.7055 11.85 89.4055 11.85C86.6055 11.85 84.0555 13.45 81.6555 16.75C79.2555 20.05 78.0555 23.65 78.0555 27.55C78.0555 29.55 78.5555 31.2 79.6055 32.6C80.6555 34 82.0555 34.65 83.8555 34.65ZM81.5055 22.15C81.4555 22.1 81.4055 22.1 81.3555 22.1C82.3055 18.7 83.6555 16.15 85.4055 14.45C86.7055 13.2 87.8555 12.6 88.8555 12.6C89.6055 12.6 90.2055 12.85 90.7055 13.35C91.2055 13.85 91.4555 14.5 91.4555 15.25C91.4555 16.8 90.7555 18.05 89.4055 19C88.0055 20 85.4055 21.05 81.5055 22.15Z" fill="#3C271D"/>
</svg>
